<svg xmlns="http://www.w3.org/2000/svg" x="0px" y="0px" viewBox="0 0 864 864" enable-background="new 0 0 864 864"><style>.fs0,.ls0{fill:#e6e6e6}</style><g transform="matrix(.99632 0 0 .99632 1.5877488515 1.5877488515)"><g><path class="ls0" d="M160.4,253.6c-8.8,13.4-16.6,27.4-23.4,42.1c-16.2,35-26.4,73.4-29.1,113.9c-0.5,7.4-0.8,14.9-0.8,22.5 s0.3,15.1,0.8,22.5c2.8,40.4,12.9,78.8,29.1,113.9c6.8,14.7,14.6,28.7,23.4,42.1c26.6,40.4,62,74.5,103.4,99.7 c14.3,8.7,29.4,16.3,45,22.7V409.5H222v45h41.8v201.4c-10.4-7.8-20.4-16.5-29.8-25.9c-13.6-13.7-25.7-28.5-36.1-44.2 c-7.7-11.6-14.4-23.7-20.2-36.2c-13.8-29.7-22.2-61.8-24.8-95c-0.6-7.4-0.9-15-0.9-22.5s0.3-15.1,0.9-22.5 c2.6-33.2,11-65.3,24.8-95c5.8-12.5,12.5-24.6,20.2-36.2c10.4-15.8,22.5-30.6,36.1-44.2c9.4-9.4,19.3-18,29.8-25.9v88.2h45V131.2 c-15.6,6.4-30.7,14-45,22.7C222.3,179,187,213.1,160.4,253.6z"/></g><g><path class="ls0" d="M492.8,363.4l-60,60l-61.7-61.7v-249c-15.4,2.9-30.4,6.9-45,12v255.7l15.5,15.5l29.5,29.5l22.1,22.1l16.2,16.2 v247.4c-13-1-25.8-2.9-38.3-5.7v45.9c12.5,2.4,25.3,4,38.3,4.9c7.4,0.5,14.9,0.8,22.5,0.8s15.1-0.3,22.5-0.8 c13-0.9,25.8-2.5,38.3-4.9v-45.9c-12.5,2.8-25.4,4.7-38.3,5.7V465.4l17.4-17.4l20.9-20.9l45-45V124.7c-14.6-5-29.6-9-45-12V363.4z"/></g><g><path class="ls0" d="M756.2,409.5c-2.5-36.7-11.1-71.7-24.8-104.1v0c-1.4-3.3-2.8-6.5-4.3-9.8c-6-13-12.9-25.6-20.6-37.6 l-25.6,45.4l-10.4,18.4l-6.9,12.2l-2.5-7.9h0l-11.7-36.9L632.9,237l0,0l-24.7-78.1h0c-2.6-1.7-5.3-3.4-8-5 c-14.3-8.7-29.4-16.3-45-22.7v601.6c15.6-6.4,30.7-14,45-22.7V282.9l10.1,31.9l9.6,30.3l13.4,42.4l6.9,21.9h32.4l9.5-16.8 l19.9-35.2c4.6,16.9,7.7,34.3,9.1,52c0.6,7.4,0.9,15,0.9,22.5s-0.3,15.1-0.9,22.5c-2.6,33.2-11,65.3-24.8,95l40.8,18.8 c16.2-35,26.4-73.4,29.1-113.9c0.5-7.4,0.8-14.9,0.8-22.5S756.7,416.9,756.2,409.5z"/></g></g><g><path class="fs0" d="M694.6,169.4C624.4,99.3,531.2,60.7,432,60.7S239.6,99.3,169.4,169.4S60.7,332.8,60.7,432	s38.6,192.4,108.7,262.6c70.1,70.1,163.4,108.7,262.6,108.7s192.4-38.6,262.6-108.7c70.1-70.1,108.7-163.4,108.7-262.6	C803.3,332.8,764.7,239.6,694.6,169.4z M669.1,669.1c-63.3,63.3-147.5,98.2-237.1,98.2c-89.6,0-173.8-34.9-237.1-98.2	C131.6,605.8,96.7,521.6,96.7,432s34.9-173.8,98.2-237.1c63.3-63.3,147.5-98.2,237.1-98.2c89.6,0,173.8,34.9,237.1,98.2	c63.3,63.3,98.2,147.5,98.2,237.1S732.4,605.8,669.1,669.1z"/></g></svg>